# xmcd
# 
# Track frame offsets:
#     150
#     29095
#     61697
#     87477
#     110362
#     150115
#     164365
#     188667
# 
# Disc length: 2893
# 
# Revision: 2
# Processed by: cddbd v1.5.2PL0 Copyright (c) Steve Scherf et al.
# Submitted via: fre:ac v1.0.31
# 
DISCID=580b4b08
DTITLE=Al Di Meola - Tirami Su
DYEAR=1987
DGENRE=Fusion
TTITLE0=Beijing Demons
TTITLE1=Arabella
TTITLE2=Smile From A Stranger
TTITLE3=Rhapsody Of Fire
TTITLE4=Song To The Pharoah King
TTITLE5=Andonea
TTITLE6=Maraba
TTITLE7=Song With A View
EXTD=YEAR: 1987
EXTT0=
EXTT1=
EXTT2=
EXTT3=
EXTT4=
EXTT5=
EXTT6=
EXTT7=
PLAYORDER=
